<?xml version="1.0"?>
<svg version="1.1" xmlns="http://www.w3.org/2000/svg" width="400" height="200" style=""><path fill="#2e4c6d" d="M33.966796875,121.5859375l-1.86328125-6.1171875l-9.369140625,0l-1.86328125,6.1171875l-5.87109375,0l9.0703125-25.8046875l6.662109375,0l9.10546875,25.8046875l-5.87109375,0z M30.802734375,110.8984375q-2.583984375-8.314453125-2.9091796875-9.404296875t-0.4658203125-1.72265625q-0.580078125,2.25-3.322265625,11.126953125l6.697265625,0z M42.31236328125,101.93359375l5.87109375,0l3.708984375,11.056640625q0.474609375,1.44140625,0.650390625,3.41015625l0.10546875,0q0.193359375-1.810546875,0.755859375-3.41015625l3.638671875-11.056640625l5.748046875,0l-8.314453125,22.166015625q-1.142578125,3.076171875-3.2607421875,4.60546875t-4.9482421875,1.529296875q-1.388671875,0-2.724609375-0.298828125l0-4.25390625q0.966796875,0.228515625,2.109375,0.228515625q1.423828125,0,2.4873046875-0.8701171875t1.6611328125-2.6279296875l0.31640625-0.966796875z M72.3493359375,111.724609375q0,2.91796875,0.9580078125,4.412109375t3.1201171875,1.494140625q2.14453125,0,3.0849609375-1.4853515625t0.9404296875-4.4208984375q0-2.91796875-0.94921875-4.376953125t-3.111328125-1.458984375q-2.14453125,0-3.09375,1.4501953125t-0.94921875,4.3857421875z M85.9372265625,111.724609375q0,4.798828125-2.53125,7.505859375t-7.048828125,2.70703125q-2.830078125,0-4.9921875-1.2392578125t-3.322265625-3.5595703125t-1.16015625-5.4140625q0-4.81640625,2.513671875-7.48828125t7.06640625-2.671875q2.830078125,0,4.9921875,1.23046875t3.322265625,3.533203125t1.16015625,5.396484375z M107.92341796875,95.88671875l5.501953125,0l-8.736328125,25.69921875l-5.94140625,0l-8.71875-25.69921875l5.501953125,0l4.833984375,15.29296875q0.404296875,1.353515625,0.8349609375,3.1552734375t0.5361328125,2.5048828125q0.193359375-1.6171875,1.318359375-5.66015625z M131.1928125,121.5859375l-1.037109375-2.671875l-0.140625,0q-1.353515625,1.705078125-2.7861328125,2.3642578125t-3.7353515625,0.6591796875q-2.830078125,0-4.4560546875-1.6171875t-1.6259765625-4.60546875q0-3.12890625,2.1884765625-4.6142578125t6.6005859375-1.6435546875l3.41015625-0.10546875l0-0.861328125q0-2.98828125-3.05859375-2.98828125q-2.35546875,0-5.537109375,1.423828125l-1.775390625-3.62109375q3.392578125-1.775390625,7.5234375-1.775390625q3.955078125,0,6.064453125,1.72265625t2.109375,5.23828125l0,13.095703125l-3.744140625,0z M129.61078125,112.48046875l-2.07421875,0.0703125q-2.337890625,0.0703125-3.48046875,0.84375t-1.142578125,2.35546875q0,2.267578125,2.6015625,2.267578125q1.86328125,0,2.9794921875-1.072265625t1.1162109375-2.84765625l0-1.6171875z M148.08134765625,110.8984375l2.337890625-2.98828125l5.501953125-5.9765625l6.046875,0l-7.8046875,8.525390625l8.279296875,11.126953125l-6.1875,0l-5.66015625-7.962890625l-2.302734375,1.845703125l0,6.1171875l-5.361328125,0l0-27.3515625l5.361328125,0l0,12.19921875l-0.28125,4.46484375l0.0703125,0z M181.4405859375,115.75q0,3.0234375-2.1005859375,4.60546875t-6.2841796875,1.58203125q-2.14453125,0-3.65625-0.2900390625t-2.830078125-0.8525390625l0-4.4296875q1.494140625,0.703125,3.3662109375,1.177734375t3.2958984375,0.474609375q2.91796875,0,2.91796875-1.6875q0-0.6328125-0.38671875-1.0283203125t-1.3359375-0.896484375t-2.53125-1.1689453125q-2.267578125-0.94921875-3.3310546875-1.7578125t-1.546875-1.8544921875t-0.4833984375-2.5751953125q0-2.619140625,2.0302734375-4.0517578125t5.7568359375-1.4326171875q3.55078125,0,6.908203125,1.546875l-1.6171875,3.8671875q-1.4765625-0.6328125-2.759765625-1.037109375t-2.619140625-0.404296875q-2.373046875,0-2.373046875,1.283203125q0,0.720703125,0.7646484375,1.248046875t3.3486328125,1.564453125q2.302734375,0.931640625,3.375,1.740234375t1.58203125,1.86328125t0.509765625,2.513671875z M187.87013671875,96.853515625q0-2.619140625,2.91796875-2.619140625t2.91796875,2.619140625q0,1.248046875-0.7294921875,1.9423828125t-2.1884765625,0.6943359375q-2.91796875,0-2.91796875-2.63671875z M193.45998046875,121.5859375l-5.361328125,0l0-19.65234375l5.361328125,0l0,19.65234375z M219.700078125,121.5859375l-5.361328125,0l0-11.478515625q0-2.126953125-0.755859375-3.1904296875t-2.408203125-1.0634765625q-2.25,0-3.251953125,1.5029296875t-1.001953125,4.9833984375l0,9.24609375l-5.361328125,0l0-19.65234375l4.095703125,0l0.720703125,2.513671875l0.298828125,0q0.896484375-1.423828125,2.4697265625-2.1533203125t3.5771484375-0.7294921875q3.427734375,0,5.203125,1.8544921875t1.775390625,5.3525390625l0,12.814453125z M232.19408203125,113.060546875l-4.2890625,0l-0.896484375-17.173828125l6.08203125,0z M226.93822265625,119.072265625q0-1.4765625,0.791015625-2.232421875t2.302734375-0.755859375q1.458984375,0,2.2587890625,0.7734375t0.7998046875,2.21484375q0,1.388671875-0.80859375,2.1884765625t-2.25,0.7998046875q-1.4765625,0-2.28515625-0.7822265625t-0.80859375-2.2060546875z"/><path fill="#" d=""/></svg>
